<svg xmlns="http://www.w3.org/2000/svg" viewBox="0 0 64 64" role="img" aria-labelledby="title">
  <title>Home</title>
  <rect width="64" height="64" rx="14" fill="#050606"/>
  <path
    d="M17 34 32 18l15 16v15H17V34Zm0 0 15 8 15-8M32 18v24M23 43l9-13 9 13M23 43l-6 6M41 43l6 6"
    fill="none"
    stroke="#e8e8e4"
    stroke-linecap="round"
    stroke-linejoin="round"
    stroke-width="3.2"
  />
  <path
    d="M17 34 32 30l15 4M23 43h18"
    fill="none"
    stroke="#8f9491"
    stroke-linecap="round"
    stroke-linejoin="round"
    stroke-width="2.2"
  />
  <g fill="#f5f5f1">
    <circle cx="32" cy="18" r="3.4"/>
    <circle cx="17" cy="34" r="3.1"/>
    <circle cx="47" cy="34" r="3.1"/>
    <circle cx="17" cy="49" r="3.1"/>
    <circle cx="47" cy="49" r="3.1"/>
    <circle cx="32" cy="30" r="3"/>
    <circle cx="32" cy="42" r="3"/>
  </g>
  <g fill="#a8aca8">
    <circle cx="23" cy="43" r="2.4"/>
    <circle cx="41" cy="43" r="2.4"/>
  </g>
</svg>
